<svg width="29" height="29" viewBox="0 0 29 29" fill="none" xmlns="http://www.w3.org/2000/svg">
<path d="M4.21066 14.1794L12.3669 6.02316C12.4519 5.93813 12.5673 5.89036 12.6875 5.89036C12.8077 5.89036 12.9231 5.93813 13.0081 6.02316C13.0931 6.10818 13.1409 6.2235 13.1409 6.34374C13.1409 6.46398 13.0931 6.5793 13.0081 6.66433L5.62555 14.0469L24.4688 14.0469C24.5889 14.0469 24.7042 14.0946 24.7892 14.1796C24.8741 14.2646 24.9219 14.3798 24.9219 14.5C24.9219 14.6202 24.8741 14.7354 24.7892 14.8204C24.7042 14.9054 24.5889 14.9531 24.4688 14.9531L5.62555 14.9531L13.0081 22.3357C13.0931 22.4207 13.1409 22.536 13.1409 22.6562C13.1409 22.7765 13.0931 22.8918 13.0081 22.9768C12.9231 23.0619 12.8077 23.1096 12.6875 23.1096C12.5673 23.1096 12.4519 23.0619 12.3669 22.9768L4.21066 14.8206C4.16853 14.7785 4.13511 14.7285 4.11231 14.6735C4.08951 14.6185 4.07777 14.5595 4.07777 14.5C4.07777 14.4404 4.08951 14.3815 4.11231 14.3265C4.13511 14.2715 4.16853 14.2215 4.21066 14.1794Z" fill="#434343"/>
</svg>
