<svg width="55" height="55" viewBox="0 0 55 55" fill="none" xmlns="http://www.w3.org/2000/svg">
<path d="M8.59375 37.8125L10.026 13.4475C10.1032 12.1343 10.6794 10.9002 11.6367 9.99786C12.594 9.09554 13.8599 8.59323 15.1754 8.59374L39.8246 8.59374C41.1401 8.59323 42.406 9.09554 43.3633 9.99786C44.3206 10.9002 44.8968 12.1343 44.974 13.4475L46.4062 37.8125M27.5 30.9375V15.4687M27.5 15.4687L34.375 22.3437M27.5 15.4687L20.625 22.3437M47.2656 37.8125L7.73437 37.8125C6.31125 37.8125 5.15625 38.9675 5.15625 40.3906V43.8281C5.15625 45.2512 6.31125 46.4062 7.73437 46.4062L47.2656 46.4062C48.6887 46.4062 49.8438 45.2512 49.8438 43.8281V40.3906C49.8438 38.9675 48.6887 37.8125 47.2656 37.8125Z" stroke="#343537" stroke-width="2.29167" stroke-linecap="round" stroke-linejoin="round"/>
</svg>
